<?xml version="1.0" encoding="UTF-8" standalone="no"?>
<svg
   xmlns:dc="http://purl.org/dc/elements/1.1/"
   xmlns:cc="http://creativecommons.org/ns#"
   xmlns:rdf="http://www.w3.org/1999/02/22-rdf-syntax-ns#"
   xmlns:svg="http://www.w3.org/2000/svg"
   xmlns="http://www.w3.org/2000/svg"
   xmlns:sodipodi="http://sodipodi.sourceforge.net/DTD/sodipodi-0.dtd"
   xmlns:inkscape="http://www.inkscape.org/namespaces/inkscape"
   version="1.1"
   x="0px"
   y="0px"
   viewBox="0 0 1080 1080"
   style="enable-background:new 0 0 1080 1080;"
   xml:space="preserve"
   id="svg94"
   sodipodi:docname="jata-pani-dp2max.svg"
   inkscape:version="1.0.1 (3bc2e813f5, 2020-09-07)"><metadata
   id="metadata100"><rdf:RDF><cc:Work
       rdf:about=""><dc:format>image/svg+xml</dc:format><dc:type
         rdf:resource="http://purl.org/dc/dcmitype/StillImage" /><dc:title></dc:title></cc:Work></rdf:RDF></metadata><defs
   id="defs98" /><sodipodi:namedview
   pagecolor="#ffffff"
   bordercolor="#666666"
   borderopacity="1"
   objecttolerance="10"
   gridtolerance="10"
   guidetolerance="10"
   inkscape:pageopacity="0"
   inkscape:pageshadow="2"
   inkscape:window-width="1366"
   inkscape:window-height="697"
   id="namedview96"
   showgrid="false"
   inkscape:zoom="0.41296296"
   inkscape:cx="540"
   inkscape:cy="580.35874"
   inkscape:window-x="-8"
   inkscape:window-y="-8"
   inkscape:window-maximized="1"
   inkscape:current-layer="svg94" />
<style
   type="text/css"
   id="style2">
	.st0{fill:#0F0F0F;stroke:#000000;stroke-width:1.0787;stroke-miterlimit:11.3386;}
	.st1{fill:#585858;stroke:#000000;stroke-width:1.0877;stroke-miterlimit:11.3386;}
	.st2{fill:#858585;stroke:#000000;stroke-width:1.0877;stroke-miterlimit:11.3386;}
	.st3{fill:#363636;stroke:#000000;stroke-width:1.0877;stroke-miterlimit:11.3386;}
	.st4{fill:#646464;stroke:#000000;stroke-width:1.0877;stroke-miterlimit:11.3386;}
	.st5{fill:#7A7A7A;stroke:#000000;stroke-width:1.0877;stroke-miterlimit:11.3386;}
	.st6{fill:#1C1C1C;stroke:#000000;stroke-width:1.0877;stroke-miterlimit:11.3386;}
	.st7{fill:#3A3A3A;stroke:#000000;stroke-width:1.0877;stroke-miterlimit:11.3386;}
	.st8{fill:#292929;stroke:#000000;stroke-width:1.0877;stroke-miterlimit:11.3386;}
	.st9{fill:#101010;stroke:#000000;stroke-width:1.0877;stroke-miterlimit:11.3386;}
	.st10{fill:#676767;stroke:#000000;stroke-width:1.0877;stroke-miterlimit:11.3386;}
	.st11{fill:#6A6A6A;stroke:#000000;stroke-width:1.0877;stroke-miterlimit:11.3386;}
	.st12{fill:none;stroke:#000000;stroke-width:1.0877;stroke-miterlimit:11.3386;}
	.st13{fill:#1B1B1B;stroke:#000000;stroke-width:1.0877;stroke-miterlimit:11.3386;}
	.st14{fill:#494949;stroke:#000000;stroke-width:1.0877;stroke-miterlimit:11.3386;}
	.st15{fill:#707070;stroke:#000000;stroke-width:1.0877;stroke-miterlimit:11.3386;}
	.st16{fill:#686868;stroke:#000000;stroke-width:1.0877;stroke-miterlimit:11.3386;}
	.st17{fill:#8A8A8A;stroke:#000000;stroke-width:1.0877;stroke-miterlimit:11.3386;}
	.st18{fill:#A1A1A1;stroke:#000000;stroke-width:1.0877;stroke-miterlimit:11.3386;}
	.st19{fill:#9F9F9F;stroke:#000000;stroke-width:1.0877;stroke-miterlimit:11.3386;}
	.st20{fill:#868686;stroke:#000000;stroke-width:1.0877;stroke-miterlimit:11.3386;}
	.st21{fill:#111111;stroke:#000000;stroke-width:1.0877;stroke-miterlimit:11.3386;}
	.st22{fill:#151515;stroke:#000000;stroke-width:1.0877;stroke-miterlimit:11.3386;}
	.st23{fill:#2D2D2D;stroke:#000000;stroke-width:1.0877;stroke-miterlimit:11.3386;}
	.st24{fill:#545454;stroke:#000000;stroke-width:1.0877;stroke-miterlimit:11.3386;}
	.st25{fill:#797979;stroke:#000000;stroke-width:1.0877;stroke-miterlimit:11.3386;}
	.st26{fill:#8C8C8C;stroke:#000000;stroke-width:1.0877;stroke-miterlimit:11.3386;}
	.st27{fill:#818181;stroke:#000000;stroke-width:1.0877;stroke-miterlimit:11.3386;}
	.st28{fill:#A0A0A0;stroke:#000000;stroke-width:1.0877;stroke-miterlimit:11.3386;}
	.st29{fill:#0F0F0F;stroke:#000000;stroke-width:1.0877;stroke-miterlimit:11.3386;}
	.st30{fill:#0D0D0D;stroke:#000000;stroke-width:1.0877;stroke-miterlimit:11.3386;}
	.st31{fill:#0C0C0C;stroke:#000000;stroke-width:1.0877;stroke-miterlimit:11.3386;}
	.st32{fill:#3D3D3D;stroke:#000000;stroke-width:1.0877;stroke-miterlimit:11.3386;}
	.st33{fill:#3C3C3C;stroke:#000000;stroke-width:1.0877;stroke-miterlimit:11.3386;}
	.st34{fill:#909090;stroke:#000000;stroke-width:1.0877;stroke-miterlimit:11.3386;}
	.st35{fill:#202020;stroke:#000000;stroke-width:1.0877;stroke-miterlimit:11.3386;}
	.st36{fill:#999999;stroke:#000000;stroke-width:1.0877;stroke-miterlimit:11.3386;}
	.st37{fill:#949494;stroke:#000000;stroke-width:1.0877;stroke-miterlimit:11.3386;}
	.st38{fill:#A5A5A5;stroke:#000000;stroke-width:1.0877;stroke-miterlimit:11.3386;}
	.st39{fill:#4A4A4A;stroke:#000000;stroke-width:1.0877;stroke-miterlimit:11.3386;}
	.st40{fill:#353535;stroke:#000000;stroke-width:1.0877;stroke-miterlimit:11.3386;}
	.st41{fill:#575757;stroke:#000000;stroke-width:1.0877;stroke-miterlimit:11.3386;}
	.st42{fill:#6D6D6D;stroke:#000000;stroke-width:1.0877;stroke-miterlimit:11.3386;}
	.st43{fill:#898989;stroke:#000000;stroke-width:1.0877;stroke-miterlimit:11.3386;}
	.st44{fill:#959595;stroke:#000000;stroke-width:1.0877;stroke-miterlimit:11.3386;}
	.st45{fill:#636363;stroke:#000000;stroke-width:1.0877;stroke-miterlimit:11.3386;}
	.st46{fill:#484848;stroke:#000000;stroke-width:1.0877;stroke-miterlimit:11.3386;}
	.st47{fill:#777777;stroke:#000000;stroke-width:1.0877;stroke-miterlimit:11.3386;}
	.st48{fill:#4F4F4F;stroke:#000000;stroke-width:1.0877;stroke-miterlimit:11.3386;}
	.st49{fill:#404040;stroke:#000000;stroke-width:1.0877;stroke-miterlimit:11.3386;}
	.st50{fill:#262626;stroke:#000000;stroke-width:1.0877;stroke-miterlimit:11.3386;}
	.st51{fill:#141414;stroke:#000000;stroke-width:1.0877;stroke-miterlimit:11.3386;}
	.st52{fill:#232323;stroke:#000000;stroke-width:1.0877;stroke-miterlimit:11.3386;}
	.st53{fill:#2E2E2E;stroke:#000000;stroke-width:1.0877;stroke-miterlimit:11.3386;}
	.st54{fill:#383838;stroke:#000000;stroke-width:1.0877;stroke-miterlimit:11.3386;}
	.st55{fill:#2B2B2B;stroke:#000000;stroke-width:1.0877;stroke-miterlimit:11.3386;}
	.st56{fill:#181818;stroke:#000000;stroke-width:1.0877;stroke-miterlimit:11.3386;}
	.st57{fill:#1D1D1D;stroke:#000000;stroke-width:1.0877;stroke-miterlimit:11.3386;}
	.st58{fill:#1E1E1E;stroke:#000000;stroke-width:1.0877;stroke-miterlimit:11.3386;}
	.st59{fill:#919191;stroke:#000000;stroke-width:1.0877;stroke-miterlimit:11.3386;}
	.st60{fill:#131313;stroke:#000000;stroke-width:1.0877;stroke-miterlimit:11.3386;}
	.st61{fill:#121212;stroke:#000000;stroke-width:1.0877;stroke-miterlimit:11.3386;}
	.st62{fill:#0B0B0B;stroke:#000000;stroke-width:1.0877;stroke-miterlimit:11.3386;}
	.st63{fill:#0E0E0E;stroke:#000000;stroke-width:1.0877;stroke-miterlimit:11.3386;}
</style>
<g
   id="Layer_2"
   transform="matrix(1.4480376,0,0,1.3426564,-261.3125,-212.88201)">
	<rect
   class="st0"
   width="1080"
   height="1080"
   id="rect4"
   x="0"
   y="0" />
</g>
<g
   id="Layer_1"
   transform="matrix(1.5853455,0,0,1.5853455,-316.03457,-318.14894)">
	<g
   id="g91">
		<path
   id="path859"
   class="st1"
   d="m 699.56,365.19 -9.51,-96.73 -20.61,-55.5 h -91.97 z" />
		<path
   id="path861"
   class="st2"
   d="m 699.56,365.19 14.27,82.46 -4.76,79.28 -55.5,-93.56 z" />
		<path
   id="path863"
   class="st3"
   d="m 577.46,212.96 -45.99,20.61 -14.27,57.09 134.78,15.86" />
		<path
   id="path865"
   class="st4"
   d="m 517.21,290.66 47.57,63.43 87.21,-47.57" />
		<path
   id="path867"
   class="st5"
   d="m 564.78,354.09 14.27,63.43 74.53,15.86" />
		<path
   id="path869"
   class="st5"
   d="m 651.99,306.51 -87.21,47.57 88.8,79.28 45.99,-68.18 z" />
		<path
   id="path871"
   class="st6"
   d="m 517.21,290.66 -55.5,3.17 -19.03,31.71 7.93,53.91 66.6,-88.79" />
		<path
   id="path873"
   class="st7"
   d="m 450.61,379.46 114.17,-25.37 -47.57,-63.43 -66.6,88.8 114.17,-25.37" />
		<path
   id="path875"
   class="st8"
   d="m 450.61,379.46 4.76,50.74 109.41,-76.11 -114.17,25.37" />
		<path
   id="path877"
   class="st9"
   d="m 442.68,325.54 -50.74,106.24 63.43,-1.59 z" />
		<path
   id="path879"
   class="st10"
   d="M 455.36,430.2 579.04,417.51" />
		<path
   id="path881"
   class="st11"
   d="M 455.36,430.2 579.04,417.51 564.77,354.08 455.36,430.2" />
		<path
   id="path883"
   class="st12"
   d="m 455.36,430.2 -14.27,68.18 14.27,-68.18 v 0 0" />
		<path
   id="path885"
   class="st13"
   d="m 455.36,430.2 v 0 l -14.27,68.18 -49.16,-66.6 z" />
		<path
   id="path887"
   class="st14"
   d="m 441.09,498.38 65.59,-45.09 -51.32,-23.1" />
		<path
   id="path889"
   class="st15"
   d="m 506.69,453.3 32.52,-15.7 39.85,-20.09" />
		<path
   id="path891"
   class="st16"
   d="m 455.36,430.2 51.32,23.1 72.36,-35.78 -123.68,12.68" />
		<path
   id="path904"
   class="st17"
   d="m 506.69,453.3 64.43,-9.62 23.79,-3.96 -15.86,-22.2 -72.36,35.78" />
		<path
   id="path906"
   class="st18"
   d="m 594.9,439.71 42.81,6.34 15.86,-12.69" />
		<path
   id="path908"
   class="st19"
   d="m 579.05,417.51 15.86,22.2 42.81,6.34 15.86,-12.69 z" />
		<path
   id="path910"
   class="st20"
   d="m 637.72,446.06 37.26,23.79 -21.41,-36.47 z" />
		<path
   id="path912"
   class="st12"
   d="m 441.09,498.38 36.47,11.1 28.54,-9.51 0.58,-46.67" />
		<path
   id="path914"
   class="st21"
   d="m 441.09,498.38 65.59,-45.09 -0.58,46.67 -28.54,9.51 -36.47,-11.09" />
		<path
   id="path916"
   class="st12"
   d="m 506.11,499.97 33.3,-9.51 26.96,-20.61 -59.68,-16.54" />
		<path
   id="path918"
   class="st21"
   d="m 506.69,453.3 -0.58,46.67 33.3,-9.51 26.96,-20.61 -59.68,-16.55" />
		<path
   id="path920"
   class="st9"
   d="m 566.36,469.84 21.41,-11.89 7.14,-18.24 -88.22,13.58 z" />
		<path
   id="path922"
   class="st22"
   d="m 587.77,457.95 28.54,3.96 21.41,-15.86 -42.81,-6.34 z" />
		<path
   id="path924"
   class="st23"
   d="m 477.56,509.48 26.96,45.19 1.59,-34.09 16.65,-11.89 16.65,-18.24 z" />
		<path
   id="path926"
   class="st24"
   d="m 522.76,508.69 22.2,-2.38 16.65,0.79 4.76,-37.26 -26.96,20.61 -16.65,18.24" />
		<path
   id="path928"
   class="st25"
   d="m 561.61,507.11 32.51,5.55 22.2,-50.74 -28.54,-3.96 -21.41,11.89 -4.76,37.26" />
		<path
   id="path930"
   class="st26"
   d="m 594.11,512.66 27.75,9.51 21.41,-14.27 -26.96,-45.99 -22.2,50.75" />
		<path
   id="path932"
   class="st27"
   d="m 643.27,507.9 31.71,-38.06 -37.26,-23.79 -21.41,15.86 26.96,45.99" />
		<path
   id="path934"
   class="st28"
   d="m 643.27,507.9 65.81,19.03 -34.09,-57.09 z" />
		<path
   id="path936"
   class="st29"
   d="m 504.52,554.68 52.33,-2.38 -37.26,-15.06 6.34,-12.69 19.03,-18.24 -22.2,2.38 -16.65,11.89 -1.59,34.1" />
		<path
   id="path949"
   class="st30"
   d="m 544.96,506.31 -3.17,17.44 5.55,10.31 29.34,6.34 12.69,-9.51 4.76,-18.24 -32.51,-5.55 z" />
		<path
   id="path951"
   class="st31"
   d="m 556.85,552.3 17.39,-6.5 10.93,-7.29 -0.28,-3.08 -8.22,4.97 -29.34,-6.34 6.45,8.38 3.07,9.86" />
		<path
   id="path953"
   class="st32"
   d="m 544.96,506.31 -19.03,18.24 -6.34,12.69 37.26,15.06 -3.07,-9.86 -6.45,-8.38 -5.55,-10.31 3.18,-17.44" />
		<path
   id="path955"
   class="st28"
   d="m 574.24,545.8 10.65,-0.28 17.94,-13.46 -4.2,-8.97 -5.61,-2.24 -3.67,10.04 -4.46,4.54 0.28,3.08 -10.93,7.29" />
		<path
   id="path957"
   class="st33"
   d="m 602.83,532.07 19.03,-9.9 -27.75,-9.51 -1.09,8.2 5.61,2.24 4.2,8.97" />
		<path
   id="path959"
   class="st18"
   d="m 709.08,526.93 -2.24,41.3 -63.56,-60.33 z" />
		<path
   id="path961"
   class="st34"
   d="m 621.86,522.17 -5.85,53.35 75.68,-21.86 -48.43,-45.75 z" />
		<path
   id="path974"
   class="st35"
   d="m 504.52,554.68 45.9,25.32 23.83,-34.2 -17.39,6.5 -52.34,2.38" />
		<path
   id="path976"
   class="st12"
   d="m 550.42,580 65.59,-4.49" />
		<path
   id="path978"
   class="st16"
   d="m 550.42,580 65.59,-4.49 5.85,-53.35 -36.97,23.35 -10.65,0.28 -23.82,34.21" />
		<path
   id="path980"
   class="st36"
   d="m 706.83,568.23 -6.48,64.94 -84.34,-57.65 75.68,-21.86 z" />
		<path
   id="path993"
   class="st37"
   d="m 550.42,580 25.46,38.1 78.49,-15.86 -38.36,-26.73 z" />
		<path
   id="path995"
   class="st38"
   d="m 575.88,618.1 124.48,15.06 -45.99,-30.92 -78.49,15.86" />
		<path
   id="path997"
   class="st39"
   d="m 441.09,498.38 -11.1,20.62 19.03,35.68 h 55.5 l -26.96,-45.19 -36.47,-11.11" />
		<path
   id="path999"
   class="st40"
   d="m 449.02,554.68 49.95,57.09 51.45,-31.77 -45.9,-25.32 h -55.5" />
		<path
   id="path1001"
   class="st41"
   d="m 498.97,611.76 76.91,6.34 -25.46,-38.1 -51.45,31.76" />
		<path
   id="path1003"
   class="st24"
   d="m 498.97,611.76 22.99,61.05 53.91,-54.71 -76.9,-6.34" />
		<path
   id="path1005"
   class="st42"
   d="m 521.96,672.81 134.78,-42.02 7.14,-3.96 -88.01,-8.72 -53.91,54.7" />
		<path
   id="path1007"
   class="st43"
   d="m 663.88,626.83 -19.03,66.6 -122.89,-20.61 z" />
		<path
   id="path1009"
   class="st44"
   d="m 700.35,633.17 -55.5,60.26 19.03,-66.6 36.47,6.34" />
		<path
   id="path1011"
   class="st45"
   d="m 644.85,693.42 43.61,46.78 7.14,-53.91 4.76,-53.12 z" />
		<path
   id="path1013"
   class="st46"
   d="m 688.46,740.2 -10.31,31.71 -14.27,27.75 -19.03,-106.24 z" />
		<path
   id="path1015"
   class="st47"
   d="M 521.96,672.81 657.54,764.78 644.85,693.42 521.96,672.81" />
		<path
   id="path1017"
   class="st48"
   d="m 521.96,672.81 1.59,53.12 80.08,51.54 53.91,-12.69 z" />
		<path
   id="path1019"
   class="st49"
   d="m 603.63,777.47 6.34,49.95 47.57,-62.64 -53.91,12.69" />
		<path
   id="path1032"
   class="st50"
   d="m 609.97,827.42 h 38.85 l 15.06,-27.75 -6.34,-34.89 -47.57,62.64" />
		<path
   id="path1034"
   class="st35"
   d="m 391.94,431.78 -15.06,42.02 19.03,33.3 45.19,-8.72 -49.16,-66.6" />
		<path
   id="path1036"
   class="st51"
   d="m 429.99,519 -34.09,-11.89 45.19,-8.72 z" />
		<path
   id="path1038"
   class="st52"
   d="m 449.02,554.68 -3.96,51.54 53.91,5.55 z" />
		<path
   id="path1040"
   class="st50"
   d="m 498.97,611.76 -53.91,-5.55 76.91,66.6 -23,-61.05" />
		<path
   id="path1042"
   class="st53"
   d="M 523.55,725.93 492.63,691.04 521.97,672.8 Z" />
		<path
   id="path1044"
   class="st54"
   d="m 603.63,777.47 -15.06,25.37 -65.01,-76.91 z" />
		<path
   id="path1046"
   class="st55"
   d="m 588.56,802.84 21.41,24.58 -6.34,-49.95 -15.07,25.37" />
		<path
   id="path1048"
   class="st29"
   d="m 445.06,606.21 -7.93,94.35 55.5,-9.51 z" />
		<path
   id="path1050"
   class="st56"
   d="m 445.06,606.21 47.57,84.83 29.34,-18.24 z" />
		<path
   id="path1052"
   class="st57"
   d="m 437.13,700.56 -0.79,17.44 42.81,-2.38 13.48,-24.58 -55.5,9.52" />
		<path
   id="path1054"
   class="st58"
   d="m 479.15,715.62 44.4,10.31 -30.92,-34.89 -13.48,24.58" />
		<path
   id="path1056"
   class="st52"
   d="m 523.55,725.93 -25.37,17.44 90.38,59.46 -65.01,-76.9" />
		<path
   id="path1058"
   class="st21"
   d="m 479.15,715.62 19.03,27.75 25.37,-17.44 -44.4,-10.31" />
		<path
   id="path1060"
   class="st21"
   d="m 436.34,718 61.84,25.37 -19.03,-27.75 z" />
		<path
   id="path1062"
   class="st59"
   d="m 719.38,603.83 12.69,-45.19 -11.1,2.38 -2.38,38.85" />
		<path
   id="path1064"
   class="st44"
   d="m 720.97,561.02 3.17,-21.41 9.51,-7.14 -1.59,26.16 z" />
		<path
   id="path1078"
   class="st30"
   d="m 461.71,293.83 55.5,-3.17 14.27,-57.09 -69.77,60.26" />
		<path
   id="path1084"
   class="st60"
   d="m 353.07,511.6 -6.73,23.55 25.79,7.85 23.76,-35.89 z" />
		<path
   id="path1086"
   class="st9"
   d="m 498.18,743.37 11.87,29.48 78.51,29.98 z" />
		<path
   id="path1088"
   class="st61"
   d="m 588.56,802.84 -4.51,64.2 25.92,-39.63 -21.41,-24.57" />
		<path
   id="path1090"
   class="st62"
   d="m 584.05,867.04 64.77,-39.63 h -38.85 l -25.92,39.63" />
		<path
   id="path1092"
   class="st63"
   d="m 436.34,718 22.14,51.49 39.71,-26.12 L 436.34,718" />
		<path
   id="path1094"
   class="st30"
   d="m 510.05,772.86 74,94.19 4.51,-64.2 -78.51,-29.99" />
		<path
   id="path1096"
   class="st30"
   d="m 458.47,769.49 125.58,97.55 -74,-94.19 -11.87,-29.48 -39.71,26.12" />
	</g>
</g>
</svg>
